<svg width="32" height="32" viewBox="0 0 32 32" fill="none" xmlns="http://www.w3.org/2000/svg">
<path d="M9.00982 22.9968C8.23534 22.9946 7.48827 23.0105 6.74249 22.9869C3.84696 22.8955 1.17511 20.8663 0.335032 18.1354C-0.66763 14.876 0.625647 11.6064 3.60639 9.90268C4.61551 9.3259 5.71213 9.01234 6.88372 9.0065C8.99256 8.99599 11.1015 9.00152 13.2104 9.00097C13.237 9.00096 13.2637 9.00916 13.3389 9.02151C13.0887 9.35105 12.8553 9.66295 12.6171 9.97124C11.9741 10.8032 11.3331 11.6368 10.6791 12.4604C10.6075 12.5507 10.4576 12.6283 10.3426 12.6302C9.49373 12.6448 8.64445 12.6354 7.79532 12.6397C6.14625 12.6479 4.76079 13.705 4.3723 15.2466C3.98939 16.7661 4.71901 18.3489 6.16188 19.1063C6.6204 19.347 7.11743 19.4799 7.63809 19.4818C9.57899 19.4889 11.5199 19.4862 13.4608 19.4865C13.5054 19.4865 13.5499 19.479 13.6079 19.4737C13.6079 19.014 13.6079 18.5692 13.6079 18.0892C13.5006 18.0892 13.4011 18.0891 13.3016 18.0892C11.8739 18.0894 10.4461 18.0932 9.01851 18.0837C8.89746 18.0829 8.73658 18.0266 8.66247 17.9397C7.77592 16.9003 6.90215 15.8503 6.02598 14.8024C6.00495 14.7772 5.99464 14.7434 5.96645 14.6886C9.99007 14.6886 13.9861 14.6886 18 14.6886C18 17.4527 18 20.2099 18 22.9968C15.0039 22.9968 12.0209 22.9968 9.00982 22.9968Z" fill="#FDFDFD"/>
<path d="M24.9267 17.7191C24.9267 19.4921 24.9267 21.2375 24.9267 23C23.4681 23 22.0357 23 20.5794 23C20.5794 19.5605 20.5794 16.1249 20.5794 12.6562C19.3956 12.6562 18.235 12.6562 17 12.6562C17.35 12.2041 17.6555 11.8071 17.9636 11.4122C18.5416 10.6715 19.1237 9.9339 19.6979 9.19034C19.8032 9.05392 19.916 8.99972 20.0938 9C23.9614 9.00615 27.8289 9.00541 31.6965 9.006C31.7766 9.00601 31.8568 9.006 32 9.006C31.8008 9.26873 31.6388 9.48637 31.4726 9.70081C30.756 10.6254 30.035 11.5466 29.3244 12.4757C29.221 12.6109 29.1121 12.6472 28.9507 12.6465C27.7079 12.641 26.4651 12.644 25.2223 12.6443C25.1322 12.6443 25.042 12.6443 24.9267 12.6443C24.9267 14.3484 24.9267 16.02 24.9267 17.7191Z" fill="#FCFCFC"/>
<path d="M13.9281 10.1921C14.1754 9.83412 14.4057 9.48962 14.6478 9.15478C14.6983 9.08494 14.7922 9.00725 14.8665 9.00676C16.2195 8.9979 17.5726 9.00029 19 9.00029C18.8125 9.27368 18.6602 9.49617 18.5075 9.71836C17.8032 10.7431 17.1012 11.7696 16.3905 12.7893C16.3259 12.8819 16.206 12.9895 16.1109 12.9905C14.7669 13.0035 13.4228 12.9994 12 12.9994C12.662 12.0349 13.2886 11.1219 13.9281 10.1921Z" fill="#FBFBFB"/>
</svg>
