<svg width="565" height="255" viewBox="0 0 565 255" fill="none" xmlns="http://www.w3.org/2000/svg">
<path d="M160.879 254.083C147.05 254.042 133.71 254.33 120.394 253.903C68.6911 252.244 20.9827 215.412 5.98231 165.843C-11.9212 106.68 11.1715 47.3327 64.3954 16.4085C82.4143 5.9391 101.996 0.247757 122.915 0.141739C160.571 -0.0491181 198.227 0.0512849 235.883 0.0412139C236.359 0.0410919 236.835 0.189957 238.18 0.4142C233.711 6.39564 229.543 12.0571 225.289 17.6528C213.809 32.7548 202.363 47.8848 190.686 62.8341C189.406 64.4723 186.731 65.8808 184.678 65.9166C169.52 66.1807 154.355 66.0114 139.193 66.0883C109.747 66.2375 85.0085 85.4247 78.0716 113.407C71.2344 140.988 84.2624 169.718 110.026 183.466C118.213 187.834 127.088 190.247 136.385 190.282C171.042 190.41 205.699 190.36 240.356 190.366C241.151 190.366 241.946 190.229 242.982 190.135C242.982 181.791 242.982 173.716 242.982 165.003C241.066 165.003 239.289 165.002 237.512 165.003C212.019 165.008 186.526 165.076 161.034 164.904C158.873 164.889 156 163.867 154.677 162.29C138.846 143.424 123.245 124.366 107.6 105.344C107.224 104.888 107.04 104.274 106.537 103.279C178.382 103.279 249.735 103.279 321.407 103.279C321.407 153.451 321.407 203.497 321.407 254.083C267.909 254.083 214.644 254.083 160.879 254.083Z" fill="#000000"/>
<path d="M437.413 158.021C437.413 190.154 437.413 221.786 437.413 253.729C411.202 253.729 385.462 253.729 359.293 253.729C359.293 191.394 359.293 129.128 359.293 66.2636C338.021 66.2636 317.165 66.2636 294.973 66.2636C301.263 58.0703 306.751 50.8749 312.289 43.7175C322.675 30.2935 333.134 16.9256 343.453 3.4496C345.345 0.977254 347.372 -0.00510704 350.568 1.99556e-05C420.066 0.111409 489.565 0.0981036 559.064 0.108785C560.504 0.108968 561.945 0.108785 564.518 0.108785C560.938 4.87032 558.027 8.81478 555.04 12.7012C542.164 29.4579 529.207 46.1535 516.439 62.9922C514.581 65.4427 512.623 66.1007 509.723 66.0877C487.391 65.9873 465.058 66.0412 442.725 66.047C441.105 66.0474 439.485 66.0471 437.413 66.0471C437.413 96.9323 437.413 127.227 437.413 158.021Z" fill="#000000"/>
<path d="M239.639 19.6991C243.988 13.7883 248.038 8.10002 252.294 2.57134C253.182 1.4182 254.832 0.135361 256.139 0.127305C279.928 -0.0190581 303.719 0.0204934 328.816 0.0204934C325.52 4.53453 322.841 8.20818 320.156 11.8769C307.774 28.797 295.43 45.7463 282.935 62.5827C281.8 64.1124 279.691 65.8892 278.019 65.9045C254.388 66.1207 230.755 66.0516 205.739 66.0516C217.378 50.126 228.395 35.0521 239.639 19.6991Z" fill="#000000"/>
</svg>
